<svg xmlns="http://www.w3.org/2000/svg" width="450" height="450" viewBox="0 0 337.5 337.5" version="1.2">
  <path d="M51.196 99.695v138.11h33.952v-54.703h36.078v54.703h12.773a31.99 31.99 0 0 1 .49-1.812l20.676-72.478v-63.82h-33.94v53.14H85.149v-53.14zm155.117 0l-23.21 81.816v56.294h60.143c24.625 0 43.064-14.36 43.064-40.735h-.002c0-19.407-11.454-26.577-17.08-30.062 4.266-2.923 15.142-11.64 15.142-27.36 0-23.86-15.327-39.953-44.045-39.953zm10.746 30.454h21.14c9.314 0 12.22 5.812 12.22 11.25 0 5.422-2.906 11.25-12.22 11.25h-21.14zm0 52.953h22.875c9.312 0 12.422 6.203 12.422 12.03 0 5.814-3.11 12.22-12.422 12.22h-22.875z" fill="#fff"/>
</svg>